<?xml version="1.0" encoding="UTF-8"?>
<svg width="20px" height="20px" viewBox="0 0 20 20" version="1.1" xmlns="http://www.w3.org/2000/svg" xmlns:xlink="http://www.w3.org/1999/xlink">
    <!-- Generator: Sketch 49 (51002) - http://www.bohemiancoding.com/sketch -->
    <title>icon/user copy 9</title>
    <desc>Created with Sketch.</desc>
    <defs></defs>
    <g id="Desktop-Designs" stroke="none" stroke-width="1" fill="none" fill-rule="evenodd" opacity="0.400000006">
        <g id="resume-public" transform="translate(-452.000000, -891.000000)" fill="#010002">
            <g id="icon/calendar" transform="translate(452.000000, 891.000000)">
                <g id="noun_861179_cc" transform="translate(0.833333, 0.833333)">
                    <path d="M13.0997518,3.93347518 C13.5038652,3.93347518 13.8311348,3.60601064 13.8311348,3.2020922 L13.8311348,0.796719858 C13.8311348,0.392801418 13.5038652,0.0653368794 13.0997518,0.0653368794 C12.6960284,0.0653368794 12.3683688,0.392801418 12.3683688,0.796719858 L12.3683688,3.2020922 C12.3683688,3.60601064 12.6960284,3.93347518 13.0997518,3.93347518 Z M5.23358156,3.93347518 C5.63730496,3.93347518 5.96496454,3.60601064 5.96496454,3.2020922 L5.96496454,0.796719858 C5.96496454,0.392801418 5.63730496,0.0653368794 5.23358156,0.0653368794 C4.82946809,0.0653368794 4.50219858,0.392801418 4.50219858,0.796719858 L4.50219858,3.2020922 C4.50219858,3.60601064 4.82946809,3.93347518 5.23358156,3.93347518 Z M17.3255851,1.85283688 L14.7087943,1.85283688 L14.7087943,3.2020922 C14.7087943,4.08930851 13.9869681,4.81113475 13.0997518,4.81113475 C12.2125355,4.81113475 11.4907092,4.08930851 11.4907092,3.2020922 L11.4907092,1.85283688 L6.84262411,1.85283688 L6.84262411,3.2020922 C6.84262411,4.08930851 6.12079787,4.81113475 5.23358156,4.81113475 C4.34636525,4.81113475 3.62453901,4.08930851 3.62453901,3.2020922 L3.62453901,1.85283688 L1.00774823,1.85283688 C0.469060284,1.85283688 0.032570922,2.28932624 0.032570922,2.82801418 L0.032570922,6.82624113 L18.3007624,6.82624113 L18.3007624,2.82801418 C18.3007624,2.28932624 17.864273,1.85283688 17.3255851,1.85283688 Z M0.032570922,17.1956915 C0.032570922,17.7343794 0.469060284,18.1708688 1.00774823,18.1708688 L17.3255851,18.1708688 C17.864273,18.1708688 18.3007624,17.7343794 18.3007624,17.1956915 L18.3007624,7.60638298 L0.032570922,7.60638298 L0.032570922,17.1956915 Z M13.5329255,9.92242908 L16.0278191,9.92242908 L16.0278191,12.4173227 L13.5329255,12.4173227 L13.5329255,9.92242908 Z M13.5329255,13.4818262 L16.0278191,13.4818262 L16.0278191,15.9767199 L13.5329255,15.9767199 L13.5329255,13.4818262 Z M9.79039007,9.92242908 L12.2852837,9.92242908 L12.2852837,12.4173227 L9.79039007,12.4173227 L9.79039007,9.92242908 Z M9.79039007,13.4818262 L12.2852837,13.4818262 L12.2852837,15.9767199 L9.79039007,15.9767199 L9.79039007,13.4818262 Z M6.04804965,9.92242908 L8.54294326,9.92242908 L8.54294326,12.4173227 L6.04804965,12.4173227 L6.04804965,9.92242908 Z M6.04804965,13.4818262 L8.54294326,13.4818262 L8.54294326,15.9767199 L6.04804965,15.9767199 L6.04804965,13.4818262 Z M2.30551418,9.92242908 L4.8004078,9.92242908 L4.8004078,12.4173227 L2.30551418,12.4173227 L2.30551418,9.92242908 Z M2.30551418,13.4818262 L4.8004078,13.4818262 L4.8004078,15.9767199 L2.30551418,15.9767199 L2.30551418,13.4818262 Z" id="Shape" fill-rule="nonzero"></path>
                </g>
            </g>
        </g>
    </g>
</svg>