<?xml version="1.0" encoding="UTF-8"?>
<svg width="24px" height="24px" viewBox="0 0 24 24" version="1.1" xmlns="http://www.w3.org/2000/svg" xmlns:xlink="http://www.w3.org/1999/xlink">
    <!-- Generator: Sketch 50.2 (55047) - http://www.bohemiancoding.com/sketch -->
    <title>icon/blue/certification</title>
    <desc>Created with Sketch.</desc>
    <defs>
        <polygon id="path-1" points="0.00554621849 0.080512605 21.9632101 0.080512605 21.9632101 18.9495064 0.00554621849 18.9495064"></polygon>
    </defs>
    <g id="icon/blue/certification" stroke="none" stroke-width="1" fill="none" fill-rule="evenodd">
        <g id="interface" transform="translate(1.000000, 3.000000)">
            <g id="Group-4">
                <mask id="mask-2" fill="white">
                    <use xlink:href="#path-1"></use>
                </mask>
                <g id="Clip-2"></g>
                <path d="M13.9395882,14.6057815 L13.9395882,18.7181176 C13.9395882,18.8037143 13.9865462,18.8821008 14.0619748,18.9224958 C14.1363866,18.9622437 14.2302101,18.9575294 14.3002773,18.9109412 L15.7854622,17.9208487 C15.9670084,17.7999412 16.2039244,17.7999412 16.3859328,17.9208487 L17.8710252,18.9109412 C17.9407227,18.9578992 18.0352857,18.9622437 18.108958,18.9224958 C18.1848487,18.8821008 18.2317143,18.8037143 18.2317143,18.7181176 L18.2317143,14.6057815 C17.6056387,14.9881933 16.8708571,15.2084706 16.0855126,15.2084706 C15.3004454,15.2084706 14.5656639,14.9881933 13.9395882,14.6057815 Z" id="Fill-1" fill="#3905C3" mask="url(#mask-2)"></path>
                <path d="M20.0296134,0.080512605 L1.93322689,0.080512605 C0.867336134,0.080512605 0,0.947478992 0,2.0137395 L0,15.0058487 C0,16.0721092 0.867336134,16.9394454 1.93322689,16.9394454 L12.8570588,16.9394454 L12.8570588,13.6503529 C12.2890336,12.940437 11.9482185,12.0406555 11.9482185,11.0621176 C11.9482185,8.77578151 13.8041681,6.91585714 16.0855126,6.91585714 C18.3667647,6.91585714 20.2227143,8.77578151 20.2227143,11.0621176 C20.2227143,12.0406555 19.8822689,12.940437 19.3142437,13.6503529 L19.3142437,16.9394454 L20.0296134,16.9394454 C21.0958739,16.9394454 21.9632101,16.0721092 21.9632101,15.0058487 L21.9632101,2.0137395 C21.9632101,0.947478992 21.0958739,0.080512605 20.0296134,0.080512605 Z M9.89547059,10.4046134 L2.23947059,10.4046134 C1.89782353,10.4046134 1.62051261,10.1276723 1.62051261,9.78602521 C1.62051261,9.44410084 1.89782353,9.16715966 2.23947059,9.16715966 L9.89547059,9.16715966 C10.2370252,9.16715966 10.5139664,9.44410084 10.5139664,9.78602521 C10.5143361,10.1276723 10.2370252,10.4046134 9.89547059,10.4046134 Z M9.89547059,7.85242857 L2.23947059,7.85242857 C1.89782353,7.85242857 1.62051261,7.57548739 1.62051261,7.23393277 C1.62051261,6.89237815 1.89782353,6.61543697 2.23947059,6.61543697 L9.89547059,6.61543697 C10.2370252,6.61543697 10.5139664,6.89237815 10.5139664,7.23393277 C10.5143361,7.57548739 10.2370252,7.85242857 9.89547059,7.85242857 Z M9.89547059,5.30070588 L2.23947059,5.30070588 C1.89782353,5.30070588 1.62051261,5.02376471 1.62051261,4.68184034 C1.62051261,4.34019328 1.89782353,4.0632521 2.23947059,4.0632521 L9.89547059,4.0632521 C10.2370252,4.0632521 10.5139664,4.34019328 10.5139664,4.68184034 C10.5143361,5.02376471 10.2370252,5.30070588 9.89547059,5.30070588 Z" id="Fill-3" fill="#3905C3" mask="url(#mask-2)"></path>
            </g>
            <path d="M16.0855126,7.99838655 C14.4014034,7.99838655 13.0307479,9.37264706 13.0307479,11.0621176 C13.0307479,12.7515882 14.4010336,14.1259412 16.0855126,14.1259412 C17.7698992,14.1259412 19.1401849,12.7515882 19.1401849,11.0621176 C19.1401849,9.37264706 17.7698992,7.99838655 16.0855126,7.99838655 Z" id="Fill-5" fill="#3905C3"></path>
        </g>
    </g>
</svg>