<?xml version="1.0" encoding="UTF-8"?>
<svg width="24px" height="24px" viewBox="0 0 24 24" version="1.1" xmlns="http://www.w3.org/2000/svg" xmlns:xlink="http://www.w3.org/1999/xlink">
    <!-- Generator: Sketch 50.2 (55047) - http://www.bohemiancoding.com/sketch -->
    <title>icon/blue/education</title>
    <desc>Created with Sketch.</desc>
    <defs>
        <polygon id="path-1" points="0.002578125 0 22 0 22 5.15625 0.002578125 5.15625"></polygon>
    </defs>
    <g id="icon/blue/education" stroke="none" stroke-width="1" fill="none" fill-rule="evenodd">
        <g id="study" transform="translate(1.000000, 1.000000)">
            <path d="M14.8671875,3.91015625 C14.8671875,1.77766016 13.1324961,0 11,0 C8.86750391,0 7.1328125,1.77766016 7.1328125,3.91015625 C7.1328125,6.04265234 8.86750391,7.77734375 11,7.77734375 C13.1324961,7.77734375 14.8671875,6.04265234 14.8671875,3.91015625" id="Fill-1" fill="#3905C3"></path>
            <path d="M12.2890625,7.77734375 L9.7109375,7.77734375 C8.80180469,7.77734375 7.92330859,8.01233984 7.12464844,8.41212109 C8.48112891,8.77812891 9.75833203,9.30526953 11,10.0179492 C12.2417109,9.30526953 13.5188711,8.77812891 14.8753516,8.41212109 C14.0766914,8.01233984 13.1981953,7.77734375 12.2890625,7.77734375" id="Fill-2" fill="#3905C3"></path>
            <g id="Group-6" transform="translate(0.000000, 11.644531)">
                <mask id="mask-2" fill="white">
                    <use xlink:href="#path-1"></use>
                </mask>
                <g id="Clip-4"></g>
                <path d="M20.7109375,0 C19.9989883,0 19.421875,0.577113281 19.421875,1.2890625 L19.421875,3.8671875 C19.421875,4.57905078 19.9989883,5.15625 20.7109375,5.15625 C21.4228867,5.15625 22,4.57905078 22,3.8671875 L22,1.2890625 C22,0.577113281 21.4228867,0 20.7109375,0" id="Fill-3" fill="#3905C3" mask="url(#mask-2)"></path>
                <path d="M2.578125,3.8671875 L2.578125,1.2890625 C2.578125,0.577113281 2.00101172,0 1.2890625,0 C0.577113281,0 0,0.577113281 0,1.2890625 L0,3.8671875 C0,4.57905078 0.577113281,5.15625 1.2890625,5.15625 C2.00101172,5.15625 2.578125,4.57905078 2.578125,3.8671875" id="Fill-5" fill="#3905C3" mask="url(#mask-2)"></path>
            </g>
            <path d="M1.2890625,9.7109375 L1.2890625,10.3554688 C2.71094141,10.3554688 3.8671875,11.5117148 3.8671875,12.9335938 L3.8671875,15.5117188 C3.8671875,16.9335977 2.71094141,18.0898438 1.2890625,18.0898438 L1.2890625,18.734375 C1.2890625,19.0906289 1.57733984,19.3789062 1.93359375,19.3789062 C5.23793359,19.3789062 7.88003906,20.4224453 10.3554688,22 L10.3554688,11.1544297 C7.86886719,9.72872656 5.19505078,9.06640625 1.93359375,9.06640625 C1.57733984,9.06640625 1.2890625,9.35468359 1.2890625,9.7109375" id="Fill-7" fill="#3905C3"></path>
            <path d="M18.1328125,15.5117188 L18.1328125,12.9335938 C18.1328125,11.5117148 19.2890586,10.3554688 20.7109375,10.3554688 L20.7109375,9.7109375 C20.7109375,9.35468359 20.4226602,9.06640625 20.0664062,9.06640625 C16.8049492,9.06640625 14.1311328,9.72872656 11.6445312,11.1544297 L11.6445312,22 C14.1199609,20.4224453 16.7620664,19.3789062 20.0664062,19.3789062 C20.4226602,19.3789062 20.7109375,19.0906289 20.7109375,18.734375 L20.7109375,18.0898438 C19.2890586,18.0898438 18.1328125,16.9335977 18.1328125,15.5117188" id="Fill-8" fill="#3905C3"></path>
        </g>
    </g>
</svg>