<?xml version="1.0" encoding="UTF-8"?>
<svg width="16px" height="20px" viewBox="0 0 16 20" version="1.1" xmlns="http://www.w3.org/2000/svg" xmlns:xlink="http://www.w3.org/1999/xlink">
    <!-- Generator: Sketch 49 (51002) - http://www.bohemiancoding.com/sketch -->
    <title>icon/user copy 4</title>
    <desc>Created with Sketch.</desc>
    <defs>
        <polygon id="path-1" points="0 0.0458333333 14.6678125 0.0458333333 14.6678125 18.3333333 0 18.3333333"></polygon>
    </defs>
    <g id="Desktop-Designs" stroke="none" stroke-width="1" fill="none" fill-rule="evenodd" opacity="0.400000006">
        <g id="resume-public" transform="translate(-771.000000, -891.000000)">
            <g id="icon/company" transform="translate(769.000000, 891.000000)">
                <g id="travel" transform="translate(2.500000, 0.833333)">
                    <mask id="mask-2" fill="white">
                        <use xlink:href="#path-1"></use>
                    </mask>
                    <g id="Clip-2"></g>
                    <path d="M11.914375,1.835625 L11.914375,0 L2.74770833,0 L2.74770833,1.835625 L0,1.835625 L0,18.3333333 L5.50114583,18.3333333 L5.50114583,16.4977083 L9.16666667,16.4977083 L9.16666667,18.3333333 L14.6678125,18.3333333 L14.6678125,1.835625 L11.914375,1.835625 Z M4.58333333,13.75 L6.41895833,13.75 L6.41895833,11.914375 L4.58333333,11.914375 L4.58333333,13.75 Z M4.58333333,10.0844792 L6.41895833,10.0844792 L6.41895833,8.24885417 L4.58333333,8.24885417 L4.58333333,10.0844792 Z M4.58333333,6.41895833 L6.41895833,6.41895833 L6.41895833,4.58333333 L4.58333333,4.58333333 L4.58333333,6.41895833 Z M8.24885417,13.75 L10.0844792,13.75 L10.0844792,11.914375 L8.24885417,11.914375 L8.24885417,13.75 Z M8.24885417,10.0844792 L10.0844792,10.0844792 L10.0844792,8.24885417 L8.24885417,8.24885417 L8.24885417,10.0844792 Z M8.24885417,6.41895833 L10.0844792,6.41895833 L10.0844792,4.58333333 L8.24885417,4.58333333 L8.24885417,6.41895833 Z" id="Fill-1" fill="#010002" mask="url(#mask-2)"></path>
                </g>
            </g>
        </g>
    </g>
</svg>