<?xml version="1.0" encoding="UTF-8"?>
<svg width="20px" height="20px" viewBox="0 0 20 20" version="1.1" xmlns="http://www.w3.org/2000/svg" xmlns:xlink="http://www.w3.org/1999/xlink">
    <!-- Generator: Sketch 49 (51002) - http://www.bohemiancoding.com/sketch -->
    <title>icon/email copy 2</title>
    <desc>Created with Sketch.</desc>
    <defs>
        <polygon id="path-1" points="0.0021484375 0 18.3333333 0 18.3333333 18.3333333 0.0021484375 18.3333333"></polygon>
    </defs>
    <g id="Desktop-Designs" stroke="none" stroke-width="1" fill="none" fill-rule="evenodd" opacity="0.400000006">
        <g id="resume-public" transform="translate(-50.000000, -280.000000)">
            <g id="icon/location" transform="translate(50.000000, 280.000000)">
                <g id="gps" transform="translate(0.833333, 0.833333)">
                    <mask id="mask-2" fill="white">
                        <use xlink:href="#path-1"></use>
                    </mask>
                    <g id="Clip-2"></g>
                    <path d="M9.16666667,6.11112305 C10.8541927,6.11112305 12.2222103,7.47914063 12.2222103,9.16666667 C12.2222103,10.8541927 10.8541927,12.2222103 9.16666667,12.2222103 C7.47914063,12.2222103 6.11112305,10.8541927 6.11112305,9.16666667 C6.11112305,7.47914063 7.47914063,6.11112305 9.16666667,6.11112305" id="Fill-1" fill="#010002" mask="url(#mask-2)"></path>
                    <path d="M9.16666667,14.513877 C6.21854492,14.513877 3.81945638,12.1151823 3.81945638,9.16666667 C3.81945638,6.21815104 6.21854492,3.81945638 9.16666667,3.81945638 C12.1147884,3.81945638 14.513877,6.21815104 14.513877,9.16666667 C14.513877,12.1151823 12.1147884,14.513877 9.16666667,14.513877 Z M17.951377,8.40278971 L15.9965853,8.40278971 C15.6429883,5.22174154 13.1119141,2.69034505 9.93054362,2.33671224 L9.93054362,0.38195638 C9.93054362,0.170836589 9.75974284,0 9.54862305,0 L8.78471029,0 C8.5736263,0 8.40278971,0.170836589 8.40278971,0.38195638 L8.40278971,2.33671224 C5.22141927,2.69034505 2.69034505,5.22174154 2.33674805,8.40278971 L0.38195638,8.40278971 C0.170836589,8.40278971 0,8.5736263 0,8.78471029 L0,9.54862305 C0,9.75974284 0.170836589,9.93054362 0.38195638,9.93054362 L2.33674805,9.93054362 C2.69034505,13.1115918 5.22141927,15.6429883 8.40278971,15.9966211 L8.40278971,17.951377 C8.40278971,18.1624967 8.5736263,18.3333333 8.78471029,18.3333333 L9.54862305,18.3333333 C9.75974284,18.3333333 9.93054362,18.1624967 9.93054362,17.951377 L9.93054362,15.9966211 C13.1119141,15.6429883 15.6429883,13.1115918 15.9965853,9.93054362 L17.951377,9.93054362 C18.1624967,9.93054362 18.3333333,9.75974284 18.3333333,9.54862305 L18.3333333,8.78471029 C18.3333333,8.5736263 18.1624967,8.40278971 17.951377,8.40278971 Z" id="Fill-3" fill="#010002" mask="url(#mask-2)"></path>
                </g>
            </g>
        </g>
    </g>
</svg>