<?xml version="1.0" encoding="UTF-8"?>
<svg width="19px" height="16px" viewBox="0 0 19 16" version="1.1" xmlns="http://www.w3.org/2000/svg" xmlns:xlink="http://www.w3.org/1999/xlink">
    <!-- Generator: Sketch 49 (51002) - http://www.bohemiancoding.com/sketch -->
    <title>icon/email copy</title>
    <desc>Created with Sketch.</desc>
    <defs></defs>
    <g id="Desktop-Designs" stroke="none" stroke-width="1" fill="none" fill-rule="evenodd" opacity="0.400000006">
        <g id="resume-public" transform="translate(-50.000000, -254.000000)" fill="#010002">
            <g id="icon/phone" transform="translate(50.000000, 252.000000)">
                <g id="old-typical-phone" transform="translate(0.833333, 2.500000)">
                    <path d="M9.16278846,2.91711538 C12.2170513,2.94708333 14.1304167,2.75705128 14.3888462,6.14237179 L18.1133333,6.14237179 C18.1133333,0.897980769 13.5395192,0.191089744 9.06583333,0.191089744 C4.59179487,0.191089744 0.0183333333,0.897980769 0.0183333333,6.14237179 L3.71391026,6.14237179 C3.99983974,2.69253205 6.13391026,2.8875 9.16278846,2.91711538 Z" id="Shape" fill-rule="nonzero"></path>
                    <path d="M1.86541667,7.82833333 C2.7725641,7.82833333 3.52740385,7.88262821 3.69522436,6.99028846 C3.71778846,6.86900641 3.73083333,6.73150641 3.73083333,6.5725 L3.68782051,6.5725 L0,6.5725 C0,7.89990385 0.835224359,7.82833333 1.86541667,7.82833333 Z" id="Shape" fill-rule="nonzero"></path>
                    <path d="M14.4128205,6.5725 L14.3779167,6.5725 C14.3779167,6.7325641 14.3916667,6.87041667 14.4174038,6.99028846 C14.594391,7.81317308 15.3481731,7.76205128 16.2521474,7.76205128 C17.2872756,7.76205128 18.1263782,7.83009615 18.1263782,6.5725 L14.4128205,6.5725 Z" id="Shape" fill-rule="nonzero"></path>
                    <path d="M12.5932372,5.66852564 L12.5932372,5.14108974 C12.5932372,4.90522436 12.3214103,4.89041667 11.9857692,4.89041667 L11.4375321,4.89041667 C11.1022436,4.89041667 10.8304167,4.90522436 10.8304167,5.14108974 L10.8304167,5.59554487 L10.8304167,5.94810897 L6.95221154,5.94810897 L6.95221154,5.59554487 L6.95221154,5.14108974 C6.95221154,4.90522436 6.68038462,4.89041667 6.34509615,4.89041667 L5.79650641,4.89041667 C5.46121795,4.89041667 5.18939103,4.90522436 5.18939103,5.14108974 L5.18939103,5.66852564 L5.18939103,6.12897436 C4.30586538,7.04705128 1.41483974,10.9552244 1.30977564,11.4283654 L1.3111859,14.5855769 C1.3111859,14.8771474 1.54846154,15.1144231 1.84003205,15.1144231 L15.9425962,15.1144231 C16.2341667,15.1144231 16.4714423,14.8771474 16.4714423,14.5855769 L16.4714423,11.4125 C16.3674359,10.953109 13.4771154,7.04669872 12.5932372,6.12862179 L12.5932372,5.66852564 Z M6.76112179,11.8532051 C6.47730769,11.8532051 6.24708333,11.6233333 6.24708333,11.3391667 C6.24708333,11.055 6.47730769,10.8251282 6.76112179,10.8251282 C7.0449359,10.8251282 7.27516026,11.055 7.27516026,11.3391667 C7.27516026,11.6233333 7.0449359,11.8532051 6.76112179,11.8532051 Z M6.76112179,10.0903846 C6.47730769,10.0903846 6.24708333,9.86051282 6.24708333,9.57634615 C6.24708333,9.29217949 6.47730769,9.06230769 6.76112179,9.06230769 C7.0449359,9.06230769 7.27516026,9.29217949 7.27516026,9.57634615 C7.27516026,9.86051282 7.0449359,10.0903846 6.76112179,10.0903846 Z M6.76112179,8.32791667 C6.47730769,8.32791667 6.24708333,8.09804487 6.24708333,7.81387821 C6.24708333,7.5300641 6.47730769,7.29983974 6.76112179,7.29983974 C7.0449359,7.29983974 7.27516026,7.5300641 7.27516026,7.81387821 C7.27516026,8.09804487 7.0449359,8.32791667 6.76112179,8.32791667 Z M8.87650641,11.8532051 C8.59269231,11.8532051 8.36246795,11.6233333 8.36246795,11.3391667 C8.36246795,11.055 8.59269231,10.8251282 8.87650641,10.8251282 C9.16067308,10.8251282 9.39054487,11.055 9.39054487,11.3391667 C9.39054487,11.6233333 9.16067308,11.8532051 8.87650641,11.8532051 Z M8.87650641,10.0903846 C8.59269231,10.0903846 8.36246795,9.86051282 8.36246795,9.57634615 C8.36246795,9.29217949 8.59269231,9.06230769 8.87650641,9.06230769 C9.16067308,9.06230769 9.39054487,9.29217949 9.39054487,9.57634615 C9.39054487,9.86051282 9.16067308,10.0903846 8.87650641,10.0903846 Z M8.87650641,8.32791667 C8.59269231,8.32791667 8.36246795,8.09804487 8.36246795,7.81387821 C8.36246795,7.5300641 8.59269231,7.29983974 8.87650641,7.29983974 C9.16067308,7.29983974 9.39054487,7.5300641 9.39054487,7.81387821 C9.39054487,8.09804487 9.16067308,8.32791667 8.87650641,8.32791667 Z M10.991891,11.8532051 C10.7077244,11.8532051 10.4778526,11.6233333 10.4778526,11.3391667 C10.4778526,11.055 10.7077244,10.8251282 10.991891,10.8251282 C11.2760577,10.8251282 11.5059295,11.055 11.5059295,11.3391667 C11.5059295,11.6233333 11.2760577,11.8532051 10.991891,11.8532051 Z M10.991891,10.0903846 C10.7077244,10.0903846 10.4778526,9.86051282 10.4778526,9.57634615 C10.4778526,9.29217949 10.7077244,9.06230769 10.991891,9.06230769 C11.2760577,9.06230769 11.5059295,9.29217949 11.5059295,9.57634615 C11.5059295,9.86051282 11.2760577,10.0903846 10.991891,10.0903846 Z M10.991891,8.32791667 C10.7077244,8.32791667 10.4778526,8.09804487 10.4778526,7.81387821 C10.4778526,7.5300641 10.7077244,7.29983974 10.991891,7.29983974 C11.2760577,7.29983974 11.5059295,7.5300641 11.5059295,7.81387821 C11.5059295,8.09804487 11.2760577,8.32791667 10.991891,8.32791667 Z" id="Shape" fill-rule="nonzero"></path>
                </g>
            </g>
        </g>
    </g>
</svg>