<?xml version="1.0" encoding="UTF-8"?>
<svg width="24px" height="24px" viewBox="0 0 24 24" version="1.1" xmlns="http://www.w3.org/2000/svg" xmlns:xlink="http://www.w3.org/1999/xlink">
    <!-- Generator: Sketch 50.2 (55047) - http://www.bohemiancoding.com/sketch -->
    <title>icon/blue/work</title>
    <desc>Created with Sketch.</desc>
    <defs>
        <polygon id="path-1" points="0 0.0214634146 21.5680488 0.0214634146 21.5680488 17.7073171 0 17.7073171"></polygon>
    </defs>
    <g id="icon/blue/work" stroke="none" stroke-width="1" fill="none" fill-rule="evenodd">
        <g id="old-fashion-briefcase" transform="translate(1.000000, 3.000000)">
            <path d="M11.842439,10.861561 L11.842439,10.3813171 C11.842439,9.79643902 11.3691707,9.32531707 10.7842927,9.32531707 C10.1994146,9.32531707 9.7277561,9.79643902 9.7277561,10.3813171 L9.7277561,10.861561 C9.7277561,11.4442927 10.1994146,11.9180976 10.7842927,11.9180976 C11.3691707,11.9180976 11.842439,11.4442927 11.842439,10.861561 Z" id="Fill-1" fill="#3905C3"></path>
            <g id="Group-5">
                <mask id="mask-2" fill="white">
                    <use xlink:href="#path-1"></use>
                </mask>
                <g id="Clip-3"></g>
                <path d="M12.5679024,11.446439 C12.332878,12.2132195 11.6267317,12.7771707 10.7842927,12.7771707 C9.94131707,12.7771707 9.23517073,12.2132195 9.00014634,11.446439 L1.71653659,11.446439 C1.2577561,11.446439 0.823658537,11.339122 0.434097561,11.1529268 L0.434097561,15.9902439 C0.434097561,16.933561 1.20517073,17.7073171 2.15063415,17.7073171 L19.4179512,17.7073171 C20.362878,17.7073171 21.1344878,16.933561 21.1344878,15.9902439 L21.1344878,11.1550732 C20.7443902,11.339122 20.3108293,11.446439 19.8515122,11.446439 L12.5679024,11.446439 Z" id="Fill-2" fill="#3905C3" mask="url(#mask-2)"></path>
                <path d="M19.7801463,2.76019512 L15.657561,2.76019512 C15.4101951,1.20517073 14.0601463,0.010195122 12.4359024,0.010195122 L9.13268293,0.010195122 C7.50790244,0.010195122 6.15839024,1.20517073 5.90887805,2.76019512 L1.78790244,2.76019512 C0.804878049,2.76019512 0,3.53395122 0,4.47887805 L0,8.4404878 C0,9.3902439 0.769463415,10.1591707 1.71653659,10.1591707 L8.92073171,10.1591707 C8.94380488,9.66443902 9.15736585,9.22014634 9.49273171,8.89980488 C9.50131707,8.88907317 9.51365854,8.88263415 9.52439024,8.87243902 C9.60004878,8.80536585 9.67731707,8.74043902 9.76102439,8.68356098 C9.79053659,8.66478049 9.82595122,8.65029268 9.85760976,8.6315122 C9.92682927,8.59126829 9.99604878,8.54941463 10.069561,8.52043902 C10.1280488,8.49521951 10.1929756,8.48019512 10.2536098,8.46356098 C10.3083415,8.44692683 10.3587805,8.426 10.4129756,8.41526829 C10.5326341,8.39004878 10.6581951,8.37770732 10.7842927,8.37770732 C10.912,8.37770732 11.0354146,8.39004878 11.1550732,8.41526829 C11.2098049,8.426 11.2597073,8.44692683 11.314439,8.46356098 C11.3750732,8.48019512 11.4378537,8.49521951 11.496878,8.52043902 C11.572,8.55156098 11.6412195,8.59126829 11.710439,8.6315122 C11.7420976,8.65029268 11.7753659,8.66478049 11.8070244,8.68356098 C11.8907317,8.74043902 11.9685366,8.80536585 12.0415122,8.87243902 C12.0522439,8.88263415 12.0645854,8.88907317 12.0753171,8.89980488 C12.4106829,9.22229268 12.6220976,9.66443902 12.6473171,10.1591707 L19.8515122,10.1591707 C20.799122,10.1591707 21.5680488,9.3902439 21.5680488,8.44263415 L21.5680488,4.47887805 C21.5680488,3.53395122 20.7631707,2.76019512 19.7801463,2.76019512 Z M7.56263415,2.76019512 C7.78263415,2.10019512 8.39863415,1.61780488 9.13268293,1.61780488 L12.4359024,1.61780488 C13.1694146,1.61780488 13.7854146,2.10019512 14.0059512,2.76019512 L7.56263415,2.76019512 Z" id="Fill-4" fill="#3905C3" mask="url(#mask-2)"></path>
            </g>
        </g>
    </g>
</svg>